<svg width="50" height="50" viewBox="0 0 50 50" fill="none" xmlns="http://www.w3.org/2000/svg">
<path d="M25 0C11.193 0 0 11.193 0 25C0 38.807 11.193 50 25 50C38.807 50 50 38.807 50 25C49.9845 11.1995 38.8005 0.0154623 25 0ZM25 48.3333C12.1134 48.3333 1.66667 37.8866 1.66667 25C1.66667 12.1134 12.1134 1.66667 25 1.66667C37.8866 1.66667 48.3333 12.1134 48.3333 25C48.3187 37.8805 37.8805 48.3187 25 48.3333Z" fill="#3B3232"/>
<path d="M35.8333 10H14.1667C11.8665 10.0028 10.0028 11.8665 10 14.1667V35.8333C10.0028 38.1335 11.8665 39.9972 14.1667 40H35.8333C38.1335 39.9972 39.9972 38.1335 40 35.8333V14.1667C39.9972 11.8665 38.1335 10.0028 35.8333 10ZM38.3333 35.8333C38.3333 37.2139 37.2139 38.3333 35.8333 38.3333H14.1667C12.7861 38.3333 11.6667 37.2139 11.6667 35.8333V14.1667C11.6667 12.7861 12.7861 11.6667 14.1667 11.6667H35.8333C37.2139 11.6667 38.3333 12.7861 38.3333 14.1667V35.8333Z" fill="#3B3232"/>
<path d="M25 16.6667C20.3975 16.6667 16.6667 20.3976 16.6667 25.0001C16.6667 29.6025 20.3975 33.3334 25 33.3334C29.6024 33.3334 33.3333 29.6025 33.3333 25.0001C33.3284 20.3997 29.6004 16.6716 25 16.6667ZM25 31.6667C21.3179 31.6667 18.3333 28.6821 18.3333 25.0001C18.3333 21.318 21.3179 18.3334 25 18.3334C28.682 18.3334 31.6667 21.318 31.6667 25.0001C31.6626 28.6801 28.68 31.6627 25 31.6667Z" fill="#3B3232"/>
<path d="M34.1667 13.3333C32.786 13.3333 31.6667 14.4526 31.6667 15.8333C31.6667 17.2139 32.786 18.3333 34.1667 18.3333C35.5473 18.3333 36.6667 17.2139 36.6667 15.8333C36.6667 14.4526 35.5473 13.3333 34.1667 13.3333ZM34.1667 16.6666C33.7065 16.6666 33.3333 16.2935 33.3333 15.8333C33.3333 15.373 33.7065 14.9999 34.1667 14.9999C34.6269 14.9999 35 15.373 35 15.8333C35 16.2935 34.6269 16.6666 34.1667 16.6666Z" fill="#3B3232"/>
</svg>
